HIERARCHY
ROOT Hips
{
	OFFSET	0.00	0.00	0.00
	CHANNELS 6 Xposition Yposition Zposition Zrotation Xrotation Yrotation
	JOINT LeftUpLeg
	{
		OFFSET	 0.126116	-0.065224	 0.014019
		CHANNELS 3 Zrotation Xrotation Yrotation
		JOINT LeftLeg
		{
			OFFSET	 0.000000	 0.569914	 0.000000
			CHANNELS 3 Zrotation Xrotation Yrotation
			JOINT LeftFoot
			{
				OFFSET	 0.000000	 0.544423	 0.000000
				CHANNELS 3 Zrotation Xrotation Yrotation
				JOINT LeftToeBase
				{
					OFFSET	 0.000000	 0.207117	 0.000000
					CHANNELS 3 Zrotation Xrotation Yrotation
					End Site
					{
						OFFSET	 0.000000	 0.207117	 0.000000
					}
				}
			}
		}
	}
	JOINT RightUpLeg
	{
		OFFSET	-0.124023	-0.065224	 0.008373
		CHANNELS 3 Zrotation Xrotation Yrotation
		JOINT RightLeg
		{
			OFFSET	 0.000000	 0.570047	 0.000000
			CHANNELS 3 Zrotation Xrotation Yrotation
			JOINT RightFoot
			{
				OFFSET	 0.000000	 0.544354	 0.000000
				CHANNELS 3 Zrotation Xrotation Yrotation
				JOINT RightToeBase
				{
					OFFSET	 0.000000	 0.207540	 0.000000
					CHANNELS 3 Zrotation Xrotation Yrotation
					End Site
					{
						OFFSET	 0.000000	 0.207540	 0.000000
					}
				}
			}
		}
	}
	JOINT Spine
	{
		OFFSET	 0.000184	 0.117403	 0.007763
		CHANNELS 3 Zrotation Xrotation Yrotation
		JOINT Spine1
		{
			OFFSET	 0.000000	 0.137269	 0.000000
			CHANNELS 3 Zrotation Xrotation Yrotation
			JOINT Spine2
			{
				OFFSET	 0.000000	 0.156879	 0.000000
				CHANNELS 3 Zrotation Xrotation Yrotation
				JOINT LeftShoulder
				{
					OFFSET	 0.080501	 0.160143	 0.002496
					CHANNELS 3 Zrotation Xrotation Yrotation
					JOINT LeftArm
					{
						OFFSET	 0.000000	 0.164363	 0.000000
						CHANNELS 3 Zrotation Xrotation Yrotation
						JOINT LeftForeArm
						{
							OFFSET	 0.000000	 0.364576	 0.000000
							CHANNELS 3 Zrotation Xrotation Yrotation
							JOINT LeftHand
							{
								OFFSET	 0.000000	 0.360812	 0.000000
								CHANNELS 3 Zrotation Xrotation Yrotation
								JOINT LeftHandIndex1
								{
									OFFSET	 0.000000	 0.086006	 0.000000
									CHANNELS 3 Zrotation Xrotation Yrotation
									JOINT LeftHandIndex2
									{
										OFFSET	 0.000000	 0.047237	 0.000000
										CHANNELS 3 Zrotation Xrotation Yrotation
										JOINT LeftHandIndex3
										{
											OFFSET	-0.004284	 0.038165	 0.000551
											CHANNELS 3 Zrotation Xrotation Yrotation
											End Site
											{
												OFFSET	-0.004284	 0.038165	 0.000551
											}
										}
									}
								}
							}
						}
					}
				}
				JOINT Neck
				{
					OFFSET	 0.000000	 0.176489	 0.000000
					CHANNELS 3 Zrotation Xrotation Yrotation
					JOINT Head
					{
						OFFSET	 0.000000	 0.077941	 0.001747
						CHANNELS 3 Zrotation Xrotation Yrotation
						End Site
						{
							OFFSET	 0.000000	 0.077941	 0.001747
						}
					}
				}
				JOINT RightShoulder
				{
					OFFSET	-0.080363	 0.159706	-0.000306
					CHANNELS 3 Zrotation Xrotation Yrotation
					JOINT RightArm
					{
						OFFSET	 0.000000	 0.164196	 0.000000
						CHANNELS 3 Zrotation Xrotation Yrotation
						JOINT RightForeArm
						{
							OFFSET	 0.000000	 0.365611	 0.000000
							CHANNELS 3 Zrotation Xrotation Yrotation
							JOINT RightHand
							{
								OFFSET	 0.000000	 0.360648	 0.000000
								CHANNELS 3 Zrotation Xrotation Yrotation
								JOINT RightHandIndex1
								{
									OFFSET	 0.000000	 0.069977	 0.000000
									CHANNELS 3 Zrotation Xrotation Yrotation
									JOINT RightHandIndex2
									{
										OFFSET	 0.000000	 0.052305	 0.000000
										CHANNELS 3 Zrotation Xrotation Yrotation
										JOINT RightHandIndex3
										{
											OFFSET	 0.009002	 0.042196	 0.000782
											CHANNELS 3 Zrotation Xrotation Yrotation
											End Site
											{
												OFFSET	 0.009002	 0.042196	 0.000782
											}
										}
									}
								}
							}
						}
					}
				}
			}
		}
	}
}
MOTION
Frames:    9
Frame Time: 0.03333334
 0.007488	 1.269326	-0.006183	 0.511982	 1.298203	 178.433200	-175.156700	 5.283622	-29.499400	 3.406463	-16.750270	 3.251567	-4.489282	 69.557980	 5.748946	 1.331492	 28.938720	-2.729976	 176.784200	 6.228643	 32.124070	-5.197402	-16.639020	-7.517839	-1.555196	 70.634520	 1.647595	-1.302049	 28.535070	 2.570149	-2.050777	 1.617848	 35.705880	-0.926683	 2.441282	-0.780458	-0.982751	-1.248827	 0.715735	-113.437500	 5.480221	 93.011710	 29.149600	 46.686520	 17.089320	 4.931104	-0.232865	 2.289796	-9.848282	 3.386573	-16.644340	-6.580301	 5.266122	 0.000000	 0.000000	 0.000000	 0.000000	 0.000000	 0.000000	 0.000000	 5.197760	-0.393840	-0.038255	 3.365582	 2.004331	 2.374063	 114.276100	-4.804429	-88.100580	-71.957040	-8.057976	 35.514030	-97.698650	-2.216027	-4.858943	-1.967489	 2.025074	-7.844926	-0.468719	 13.679810	 0.767459	 12.035470	 12.348070	-2.752249	-8.390404	 4.822225	-0.002499
 0.011487	 1.269073	-0.003830	 0.433584	 1.381782	 178.865500	-175.110100	 5.395550	-29.082180	 3.401594	-16.727750	 3.482121	-3.988260	 69.374550	 5.105466	 1.331492	 28.938720	-2.729976	 176.802300	 6.313048	 32.515320	-5.238232	-16.762080	-7.524611	-1.712024	 70.730100	 1.702381	-1.298095	 28.485590	 2.661243	-2.013917	 1.775199	 33.078640	-1.076828	 2.643458	-0.468459	-1.001242	-1.183776	 0.498280	-113.438800	 5.511406	 93.041650	 44.671200	 41.238380	 4.116028	 5.708869	-0.224314	 7.512722	-18.105840	 10.222410	-13.528620	-6.580301	 5.266122	 0.000000	 0.000000	 0.000000	 0.000000	 0.000000	 0.000000	 0.000000	 5.302032	-0.337790	-0.205308	 4.326838	 1.748260	 1.952559	 114.270400	-4.763811	-88.121210	-80.169920	 9.639857	 13.693210	-106.822200	-2.102983	-10.428480	 0.905406	-2.528771	-24.806200	-0.524883	 15.246220	 0.781495	 12.078530	 13.880510	-3.088330	-8.405054	 5.667581	-0.056225
 0.014494	 1.268811	-0.001722	 0.351656	 1.454784	 179.282100	-175.105900	 5.546905	-28.675350	 3.400346	-16.721900	 3.730196	-3.390660	 69.211930	 4.407712	 1.331492	 28.938720	-2.729976	 176.784500	 6.409640	 32.913550	-5.294104	-16.930220	-7.517866	-1.790048	 70.849300	 1.695542	-1.294585	 28.442660	 2.742705	-1.933293	 1.961438	 29.495370	-1.149435	 2.816087	-0.270103	-1.054525	-1.111020	 0.289455	-113.439900	 5.525645	 93.062840	 52.020940	 37.599060	-2.053150	 6.484779	-0.219053	 12.369650	-22.302060	 13.351600	-11.496800	-6.580301	 5.266122	 0.000000	 0.000000	 0.000000	 0.000000	 0.000000	 0.000000	 0.000000	 5.366979	-0.287942	-0.355701	 5.131890	 1.506413	 1.571687	 114.264500	-4.721702	-88.143590	-80.760490	 23.429710	-2.264065	-103.635800	-2.101426	-15.160590	-5.319206	-3.957604	-34.569480	-0.580332	 16.770160	 0.796794	 12.129660	 15.371140	-3.418705	-8.418397	 6.479557	-0.107703
 0.016701	 1.268517	 0.000360	 0.203042	 1.482788	 179.764800	-175.231200	 5.794444	-28.143840	 3.390237	-16.675060	 4.208462	-2.103064	 69.137180	 3.045943	 1.331492	 28.938720	-2.729976	 176.637300	 6.584480	 33.542160	-5.387211	-17.209670	-7.382518	-1.546268	 70.999450	 1.293949	-1.293599	 28.431740	 2.785376	-1.787029	 2.176792	 24.966760	-1.258274	 2.997495	-0.125968	-1.119488	-1.072733	 0.065845	-113.440400	 5.415071	 93.025620	 55.291980	 35.617250	-4.085774	 7.346136	-0.219439	 17.085060	-23.359270	 14.166210	-10.612920	-6.580301	 5.266122	 0.000000	 0.000000	 0.000000	 0.000000	 0.000000	 0.000000	 0.000000	 5.155116	-0.262038	-0.441870	 5.103715	 1.309015	 1.302664	 114.253900	-4.649818	-88.189000	-67.696820	 39.182270	-14.722610	-99.187500	-2.102686	-19.699760	-4.830440	-7.187168	-38.179600	-0.649318	 18.632670	 0.817769	 12.204890	 17.192560	-3.827799	-8.432470	 7.386754	-0.165097
 0.018415	 1.268182	 0.002291	 0.053728	 1.508108	-179.763200	-175.380000	 6.079719	-27.626630	 3.384539	-16.648600	 4.679119	-0.804142	 69.040150	 1.707639	 1.331492	 28.938720	-2.729976	 176.474400	 6.770278	 34.156700	-5.493032	-17.526260	-7.256138	-1.294048	 71.172490	 0.900710	-1.292628	 28.421080	 2.827047	-1.596875	 2.393319	 19.844690	-1.333477	 3.185893	 0.011275	-1.198387	-1.043352	-0.151812	-113.441000	 5.307065	 92.989280	 56.758540	 34.515220	-4.809064	 8.228631	-0.223774	 21.501210	-22.945620	 14.330000	-10.249370	-6.580301	 5.266122	 0.000000	 0.000000	 0.000000	 0.000000	 0.000000	 0.000000	 0.000000	 4.948237	-0.236431	-0.525935	 5.074968	 1.116269	 1.039784	 114.243700	-4.579602	-88.233310	-46.785210	 47.965670	-29.479190	-86.914120	-2.096998	-23.629450	-15.189350	-8.030744	-36.092290	-0.718202	 20.452540	 0.840811	 12.292430	 18.971740	-4.234096	-8.445361	 8.272882	-0.221060
 0.019724	 1.267842	 0.004158	-0.090472	 1.534630	-179.296500	-175.542600	 6.351928	-27.112720	 3.379678	-16.626040	 5.147649	 0.495612	 68.947730	 0.380312	 1.331492	 28.938720	-2.729976	 176.289700	 6.953596	 34.764800	-5.604996	-17.859960	-7.134614	-1.006610	 71.350980	 0.497333	-1.291657	 28.410510	 2.868310	-1.356053	 2.604683	 14.133790	-1.381119	 3.331486	 0.043223	-1.287166	-0.996718	-0.366441	-113.441700	 5.200116	 92.953320	 57.014630	 34.184330	-4.750597	 9.095214	-0.229653	 25.642360	-21.536440	 13.893330	-10.396310	-6.580301	 5.266122	 0.000000	 0.000000	 0.000000	 0.000000	 0.000000	 0.000000	 0.000000	 4.743399	-0.210774	-0.609093	 5.045297	 0.925248	 0.779349	 114.233600	-4.510078	-88.277150	-37.352890	 53.070110	-32.904240	-63.439990	-1.833427	-26.878570	-28.254810	-5.332585	-27.650910	-0.788044	 22.254710	 0.866242	 12.393390	 20.733010	-4.643821	-8.457292	 9.150434	-0.276413
 0.020664	 1.267537	 0.005977	-0.219150	 1.565163	-178.845600	-175.701600	 6.562954	-26.609890	 3.375190	-16.605190	 5.604642	 1.751985	 68.893520	-0.911345	 1.331492	 28.938720	-2.729976	 176.084800	 7.116805	 35.353520	-5.714121	-18.183940	-7.018170	-0.668337	 71.514630	 0.079275	-1.290706	 28.400260	 2.908361	-1.068326	 2.798025	 8.035385	-1.406452	 3.378334	-0.118308	-1.378397	-0.907422	-0.573693	-113.442300	 5.096302	 92.918390	 56.465200	 34.608490	-4.264899	 9.864061	-0.234078	 29.398340	-19.564550	 12.777590	-11.032340	-6.580301	 5.266122	 0.000000	 0.000000	 0.000000	 0.000000	 0.000000	 0.000000	 0.000000	 4.544599	-0.185584	-0.689727	 5.015347	 0.739804	 0.526437	 114.223800	-4.442553	-88.319740	-46.495940	 58.321520	-20.849050	-33.427830	-1.032953	-29.755730	-38.898740	-0.196342	-16.450680	-0.857544	 24.003150	 0.893541	 12.505540	 22.441110	-5.049338	-8.468078	 10.002190	-0.330098
 0.021789	 1.267095	 0.007938	-0.202128	 1.751793	-179.610500	-175.495000	 6.430283	-27.382350	 3.409038	-16.762240	 5.206793	 0.558742	 68.856740	 0.263738	 1.331492	 28.938720	-2.729976	 176.214800	 7.334758	 34.536130	-5.822773	-18.505210	-7.878190	-3.385494	 71.615190	 2.796901	-1.291727	 28.414120	 2.920875	-0.695107	 3.005893	 0.697888	-1.440729	 3.401538	 0.000924	-1.334023	-0.715543	-0.666555	-113.443800	 5.076488	 92.931140	 54.659660	 36.190930	-2.169307	 10.654530	-0.236122	 33.526910	-18.202050	 12.036920	-10.729750	-6.580301	 5.266122	 0.000000	 0.000000	 0.000000	 0.000000	 0.000000	 0.000000	 0.000000	 4.309625	-0.158020	-0.730800	 4.870296	 0.825065	 0.464182	 114.216300	-4.390824	-88.354100	-58.718960	 59.087520	-9.016156	-11.302100	-0.203965	-33.548840	-43.338220	-2.657594	-7.919897	-0.802630	 22.625450	 0.871808	 12.415990	 21.095270	-4.729107	-8.459889	 9.349777	-0.288986
 0.022353	 1.266675	 0.009705	-0.165828	 1.929064	 179.656100	-175.290000	 6.263512	-28.119520	 3.449255	-16.948460	 4.821263	-0.599436	 68.882140	 1.398567	 1.331492	 28.938720	-2.729976	 176.319900	 7.541496	 33.748320	-5.934223	-18.833490	-8.675047	-5.851274	 71.675480	 5.298654	-1.292721	 28.427450	 2.930645	-0.318949	 3.152112	-6.080449	-1.469327	 3.317543	-0.118107	-1.282991	-0.490926	-0.743542	-113.445100	 5.062889	 92.944600	 51.458320	 38.786200	 0.742106	 11.252970	-0.236380	 36.785750	-16.056930	 10.155110	-11.055400	-6.580301	 5.266122	 0.000000	 0.000000	 0.000000	 0.000000	 0.000000	 0.000000	 0.000000	 4.100790	-0.133484	-0.765107	 4.737235	 0.912657	 0.418165	 114.209800	-4.345973	-88.383980	-34.977140	 52.528970	-28.242390	-35.285600	-1.041198	-37.172990	-23.173020	-2.043586	 0.337834	-0.749538	 21.266640	 0.851966	 12.336260	 19.767460	-4.418194	-8.451350	 8.705355	-0.248358
